<svg xmlns="http://www.w3.org/2000/svg" width="852" height="852" viewBox="0 0 852 852">
<path d="M0 0 C1.9375 0.25 1.9375 0.25 4 1 C6.3440482 4.51607229 6.70744913 7.61258436 7.3125 11.6875 C12.0684723 40.35991243 25.2673889 71.44807014 45 93 C46.18335938 94.37671875 46.18335938 94.37671875 47.390625 95.78125 C53.82330802 103.14444691 60.852599 109.56839933 69 115 C69 116.32 69 117.64 69 119 C63.26508549 119.88229454 60.23061188 117.50103025 55.7578125 114.3125 C55.17773438 113.879375 54.59765625 113.44625 54 113 C54 113.33 54 113.66 54 114 C54.66 114.66 55.32 115.32 56 116 C56 117.32 56 118.64 56 120 C50.05676899 120.3778478 45.71708869 119.07535304 40.1875 117 C29.70777881 113.31532493 21.47455487 112.5941725 11 117 C9.54077315 117.88166946 8.10155685 118.79756771 6.6875 119.75 C4.16002438 121.4315866 3.29518685 121.98688058 0.1875 122.125 C-2.86438282 120.55546027 -3.69195007 119.16685772 -5 116 C-5.48134638 112.14922898 -5.42910973 109.85821947 -3.6875 106.375 C2.57842139 100.83767412 11.13043706 98.45117534 19 96 C18.48050781 95.11441406 17.96101563 94.22882813 17.42578125 93.31640625 C7.02135985 75.04997848 3.82479503 56.46914953 3.51660156 35.57592773 C3.3612806 29.37569653 2.54141729 24.6724434 0 19 C-14.02579923 36.2316962 -22.27215166 60.93644188 -22.4375 82.875 C-22.44765137 83.82568359 -22.45780273 84.77636719 -22.46826172 85.75585938 C-22.3510388 95.21954648 -19.78842682 103.02089174 -15.375 111.3125 C-13.29100971 115.23866736 -11.6140176 118.57741374 -11 123 C-12.98 123.495 -12.98 123.495 -15 124 C-25.90189808 112.75250861 -30.0340407 99.31482292 -32 84 C-32.51454767 102.39031484 -30.6481755 117.59513345 -18 132 C-16.01890554 135.77351326 -15.80296163 138.76367494 -16 143 C-14.02 143 -12.04 143 -10 143 C-10.12375 141.824375 -10.2475 140.64875 -10.375 139.4375 C-10.34403025 135.06302338 -9.09551079 132.7061615 -6.00811768 129.64889526 C0.82278123 124.03994266 8.80789423 123.44830359 17.296875 123.6796875 C18.3571138 123.69086105 19.4173526 123.70203461 20.50971985 123.71354675 C22.76351423 123.73829427 25.0172291 123.77155885 27.27078247 123.81277466 C33.11115361 123.91722892 38.95182548 123.95369471 44.79296875 123.98828125 C45.93789291 123.99595016 47.08281708 124.00361908 48.26243591 124.01152039 C57.56203702 124.05093879 66.78891311 123.73734954 76.0625 123.0625 C77.26551758 122.97532715 78.46853516 122.8881543 79.70800781 122.79833984 C85.44503396 122.36904154 85.44503396 122.36904154 91 121 C89.91203125 120.47792969 88.8240625 119.95585937 87.703125 119.41796875 C77.66606575 114.45042065 69.75047053 109.06753524 62 101 C61.25234375 100.24847656 60.5046875 99.49695313 59.734375 98.72265625 C51.13982667 89.65245544 42.82794026 76.66210377 42.75 63.75 C42.8325 62.8425 42.915 61.935 43 61 C44.87231445 61.2878418 44.87231445 61.2878418 47 62 C48.56017476 64.59233626 49.88888119 67.09406956 51.1875 69.8125 C55.10176714 77.59054863 59.45463361 84.25347121 65 91 C65.91652344 92.17949219 65.91652344 92.17949219 66.8515625 93.3828125 C77.39767074 106.26252767 94.42466467 116.60548844 111.0234375 118.7109375 C113 119 113 119 114 120 C118.84034716 120.16407956 123.23258627 119.95348275 128 119 C127.39414062 118.731875 126.78828125 118.46375 126.1640625 118.1875 C119.28844042 114.97182444 113.69312455 110.99884107 108 106 C107.21753906 105.32453125 106.43507813 104.6490625 105.62890625 103.953125 C99.65483451 98.45825688 99.65483451 98.45825688 99 94 C99 93.01 99 92.02 99 91 C102.89379479 91.11799378 104.62312637 92.4087085 107.1875 95.125 C119.27374851 107.83371625 137.76227231 116.51653692 155.34326172 117.11352539 C157.11854248 117.10567017 157.11854248 117.10567017 158.9296875 117.09765625 C160.21875 117.09443359 161.5078125 117.09121094 162.8359375 117.08789062 C164.18229236 117.07953733 165.52864652 117.07107241 166.875 117.0625 C168.24479004 117.0574783 169.61458185 117.05291657 170.984375 117.04882812 C174.3229619 117.03707254 177.66145815 117.02063964 181 117 C181.66 118.32 182.32 119.64 183 121 C179.07458711 123.70565183 175.899007 124.55359342 171.1875 125.125 C169.96160156 125.2796875 168.73570312 125.434375 167.47265625 125.59375 C166.32667969 125.7278125 165.18070313 125.861875 164 126 C162.37490102 126.20755981 160.74987751 126.41571345 159.125 126.625 C158.09375 126.74875 157.0625 126.8725 156 127 C155.0944632 129.71661039 154.86270746 131.36598488 154.82641602 134.16430664 C154.81292618 134.99849625 154.79943634 135.83268585 154.78553772 136.69215393 C154.77509933 137.5890947 154.76466095 138.48603546 154.75390625 139.41015625 C154.72098485 141.30534346 154.68777293 143.20052563 154.65429688 145.09570312 C154.60676184 148.08696218 154.5622948 151.07819839 154.52319336 154.06958008 C154.48361378 156.9541491 154.4320544 159.8383099 154.37890625 162.72265625 C154.3704921 163.62162125 154.36207794 164.52058624 154.35340881 165.4467926 C154.33676682 166.27783005 154.32012482 167.10886749 154.30297852 167.96508789 C154.29267105 168.69772354 154.28236359 169.43035919 154.27174377 170.18519592 C154 172 154 172 152 174 C149.375 173.625 149.375 173.625 147 173 C146.7666394 172.01326294 146.7666394 172.01326294 146.52856445 171.0065918 C143.19841937 156.95399057 139.75634318 142.94500853 136 129 C126.94831721 128.78416931 118.12038885 129.44220938 109.12890625 130.42578125 C107.71667591 130.57597757 106.30439748 130.72572229 104.89207458 130.87504578 C101.94429466 131.18806642 98.99701348 131.5053243 96.05004883 131.82592773 C92.33971943 132.2294108 88.62851863 132.62406052 84.91694069 133.01587105 C71.74683747 134.40815195 58.58067565 135.82241274 45.46484375 137.66796875 C44.16831627 137.84867668 44.16831627 137.84867668 42.84559631 138.03303528 C39.1106402 138.28848389 39.1106402 138.28848389 36 140 C35.86656681 141.46889113 35.79654661 142.94364607 35.75390625 144.41796875 C35.72264648 145.33626465 35.69138672 146.25456055 35.65917969 147.20068359 C35.62727539 148.18633301 35.59537109 149.17198242 35.5625 150.1875 C34.46427292 176.98164655 34.46427292 176.98164655 28 184 C25.3125 185.9375 25.3125 185.9375 23 187 C22.34 187.33 21.68 187.66 21 188 C15.71476647 188.65661761 11.20898687 188.40417193 6.625 185.390625 C-1.70434086 178.26263138 -5.18479571 168.14125237 -7.77734375 157.85546875 C-9.24730915 154.42241856 -10.67637681 153.56051501 -14 152 C-13.8453125 153.36125 -13.8453125 153.36125 -13.6875 154.75 C-13.73253331 165.96329463 -22.40852724 178.64364738 -28.4140625 187.6875 C-29.02652832 188.61103271 -29.02652832 188.61103271 -29.65136719 189.55322266 C-30.4440416 190.73337757 -31.24872419 191.9055904 -32.06738281 193.06787109 C-34.74074557 197.01689027 -35.72568181 200.25086635 -36 205 C-34.1086749 210.53888066 -28.81194734 213.1561975 -24 216 C-23.29101562 216.309375 -22.58203125 216.61875 -21.8515625 216.9375 C-19.54779239 218.25949466 -18.93024422 219.42645826 -17.8125 221.8125 C-17.32716797 222.81216797 -17.32716797 222.81216797 -16.83203125 223.83203125 C-14.66237916 229.48535007 -14.70071521 235.40175179 -14.48242188 241.38085938 C-14.40955109 245.64985015 -14.40955109 245.64985015 -12 249 C-10.10203262 249.29103709 -10.10203262 249.29103709 -7.91748047 249.22705078 C-7.07675995 249.22689972 -6.23603943 249.22674866 -5.36984253 249.22659302 C-4.46146637 249.21627045 -3.55309021 249.20594788 -2.6171875 249.1953125 C-1.68778351 249.1924826 -0.75837952 249.18965271 0.19918823 249.18673706 C3.1745885 249.17552069 6.14969035 249.1504136 9.125 249.125 C11.13931858 249.11497208 13.15364186 249.1058459 15.16796875 249.09765625 C20.11209456 249.07557661 25.05599665 249.04103693 30 249 C30.38218767 250.65614657 30.71395102 252.32457024 31 254 C29.10363013 255.89636987 25.74648968 255.1536375 23.2265625 255.17578125 C21.83071411 255.19898092 20.43488073 255.22309832 19.0390625 255.24804688 C16.83127842 255.28317295 14.62404516 255.3125058 12.41601562 255.32592773 C10.28968046 255.34139459 8.16496926 255.38159298 6.0390625 255.42578125 C4.76240723 255.44036377 3.48575195 255.45494629 2.17041016 255.4699707 C-1.04595391 255.70220698 -1.04595391 255.70220698 -2.90478516 257.82104492 C-4.57614223 261.1462482 -4.57828555 263.33752488 -4 267 C-1.17892499 269.73979203 -1.17892499 269.73979203 2 272 C4.23848904 275.3382523 4.25188553 278.24151995 4.2734375 282.19921875 C4.2940625 283.40900391 4.3146875 284.61878906 4.3359375 285.86523438 C4.36177888 288.39381387 4.38012707 290.92248213 4.390625 293.45117188 C4.55524455 302.07997993 5.313384 309.12432677 11.4375 315.5625 C20.60526725 319.26177451 31.2152629 316.73177044 40.5 314.4375 C41.62075928 314.1679248 42.74151855 313.89834961 43.89624023 313.62060547 C71.8438753 306.71344802 95.97951215 295.44354708 119.06640625 278.19140625 C123.00960346 275.24582218 127.00642054 272.37671712 131 269.5 C132.56128987 268.37122092 134.1224898 267.24231743 135.68359375 266.11328125 C138.21019106 264.28769246 140.74140013 262.46956173 143.28515625 260.66796875 C145.88536586 258.81381084 148.44822678 256.92006389 151 255 C152.24910156 254.10667969 152.24910156 254.10667969 153.5234375 253.1953125 C160.37250589 247.85348246 162.16109117 242.25508088 164 234 C164.62976264 231.29404544 165.26510658 228.58947185 165.90332031 225.88549805 C166.33470802 224.03804024 166.75508341 222.18796779 167.16308594 220.33520508 C168.24779892 215.53871182 169.37431504 211.23102603 172 207 C174.5625 206.0625 174.5625 206.0625 177 206 C177.66 206.33 178.32 206.66 179 207 C186.2016627 207.73956469 192.04503842 207.29163543 198 203 C203.49041533 198.40281927 207.75723751 192.72517348 212 187 C213.17949219 185.453125 213.17949219 185.453125 214.3828125 183.875 C219.03552418 177.6689929 223.0835623 171.37858438 226.5625 164.4375 C226.89693115 163.77097412 227.2313623 163.10444824 227.57592773 162.41772461 C231.96865667 153.32138957 232.24780248 144.07384777 229.04296875 134.51953125 C226.14132682 127.50994682 222.5419328 121.05599833 216 117 C209.74593761 115.35959019 204.70012553 115.85668319 199 119 C192.61285548 123.97272115 187.06464729 129.70341148 182 136 C181.01 135.67 180.02 135.34 179 135 C179.90110056 127.05183096 184.49984045 121.03072861 190.3125 115.6875 C196.70462153 110.67938693 203.26869078 107.09241418 211.5546875 107.5859375 C219.32839245 108.90225176 225.27835536 112.73703688 230 119 C237.83458087 131.65340657 241.09267346 143.09002558 238 157.875 C234.29553035 170.95263937 226.44184843 181.6132159 218 192 C216.7252717 193.64281845 215.45398405 195.28831751 214.1875 196.9375 C213.63320313 197.64390625 213.07890625 198.3503125 212.5078125 199.078125 C211.57478338 200.26737456 210.65093748 201.4639713 209.7421875 202.671875 C204.38938293 209.54898816 197.59841756 214.35920534 189 216 C186.73419669 216.07512057 184.46612118 216.09602406 182.19921875 216.0703125 C181.03608154 216.06016113 179.87294434 216.05000977 178.67456055 216.03955078 C177.79195557 216.02649902 176.90935059 216.01344727 176 216 C175.83918945 216.80630859 175.67837891 217.61261719 175.51269531 218.44335938 C174.90296895 221.4719859 174.28297451 224.49828652 173.65625 227.5234375 C173.25781977 229.46195379 172.87097891 231.40284055 172.484375 233.34375 C168.31788819 253.34288667 156.2322373 261.13422801 140.34472656 272.34472656 C138.08663213 273.93884154 135.83543864 275.54222714 133.5859375 277.1484375 C130.06470219 279.65828399 126.52701964 282.14341384 122.97900391 284.61523438 C121.13756041 285.90374505 119.30884363 287.2086813 117.48046875 288.515625 C106.01123204 296.56893963 93.49723103 302.71355904 81 309 C81.4846875 309.93457031 81.969375 310.86914062 82.46875 311.83203125 C86.29196339 319.29630846 89.79355842 326.78642127 92.9375 334.5625 C98.22161746 347.43815881 105.26687092 358.53707037 113.93359375 369.390625 C116 372 116 372 118 375 C118.77601563 374.33355469 119.55203125 373.66710937 120.3515625 372.98046875 C126.67423888 367.57617548 133.0727506 362.3004671 139.63647461 357.19140625 C142.62821729 354.86262751 145.6059104 352.5207204 148.55078125 350.1328125 C185.5265939 320.15093654 237.38861809 280.58795629 287.3515625 279.37109375 C291.15143164 280.27342256 293.60359452 281.9953417 296 285 C297.58350814 288.27110855 298.60778418 291.641955 299.625 295.125 C300.20955125 297.01345049 300.79547626 298.90147633 301.3828125 300.7890625 C301.79515137 302.14112793 301.79515137 302.14112793 302.21582031 303.52050781 C303.43448576 307.37379744 304.9257484 311.11068162 306.46875 314.84375 C307.12555242 317.50959512 306.70270498 319.37410244 306 322 C303.72265625 321.9296875 303.72265625 321.9296875 301 321 C299.53359113 318.66472101 298.48343429 316.63957621 297.4375 314.125 C297.14012939 313.44896729 296.84275879 312.77293457 296.53637695 312.07641602 C294.106776 306.47621563 291.93916283 300.78825487 290 295 C289.5875 293.783125 289.175 292.56625 288.75 291.3125 C288.5025 290.549375 288.255 289.78625 288 289 C271.90945718 287.60754918 256.4357008 294.76487534 242 301 C241.27699707 301.30921387 240.55399414 301.61842773 239.80908203 301.93701172 C214.57576939 312.85589659 191.14557732 328.67328694 169.65625 345.70166016 C167.08314284 347.71872735 164.47211048 349.68526674 161.86621094 351.65966797 C153.42682108 358.06202894 145.16878867 364.6612654 136.97949219 371.37939453 C134.34414501 373.53694689 131.69793301 375.68094819 129.05175781 377.82519531 C122.01858852 383.52561873 115.01752621 389.26414645 108.03491211 395.02636719 C104.8934786 397.61864515 101.75028467 400.20825352 98.58984375 402.77734375 C97.12224609 403.97037109 97.12224609 403.97037109 95.625 405.1875 C94.37589844 406.19876953 94.37589844 406.19876953 93.1015625 407.23046875 C92.40804687 407.81441406 91.71453125 408.39835937 91 409 C90.38898438 409.49113281 89.77796875 409.98226563 89.1484375 410.48828125 C87.76856317 411.93490634 87.76856317 411.93490634 88.25268555 413.85473633 C89.10120022 416.29050844 90.19435084 417.8274927 91.80859375 419.8359375 C92.38649658 420.56417725 92.96439941 421.29241699 93.55981445 422.04272461 C94.17945068 422.81237549 94.79908691 423.58202637 95.4375 424.375 C100.00920359 430.15135775 104.52455463 435.94643256 108.8125 441.9375 C109.2262085 442.50968262 109.63991699 443.08186523 110.06616211 443.67138672 C111.80236812 446.11537627 113.04474618 448.13423855 114 451 C114.66 451 115.32 451 116 451 C116.38865234 450.14728516 116.38865234 450.14728516 116.78515625 449.27734375 C125.87086804 432.24528597 143.21920175 416.7172172 156.6875 403.1875 C157.3882666 402.48206055 158.0890332 401.77662109 158.81103516 401.04980469 C163.37833735 396.49646977 168.10521441 392.19728673 173 388 C174.46373047 386.71416016 174.46373047 386.71416016 175.95703125 385.40234375 C200.47462809 364.23872733 228.54208274 346.16131501 258.3125 333.3125 C259.05838379 332.98531982 259.80426758 332.65813965 260.57275391 332.32104492 C265.59208057 330.24597493 270.53424126 329.01439753 276 329 C277 330 277 330 277.0625 332.5625 C277.041875 333.366875 277.02125 334.17125 277 335 C275.59814453 335.69222656 275.59814453 335.69222656 274.16796875 336.3984375 C249.58552764 348.58167317 225.95358998 361.44068708 204 378 C203.09765625 378.67933594 202.1953125 379.35867188 201.265625 380.05859375 C199.15427293 381.67954312 197.07158642 383.32860641 195 385 C194.13375 385.69351562 193.2675 386.38703125 192.375 387.1015625 C186.06127857 392.20515399 179.98539812 397.51712406 174 403 C172.99641306 403.91050832 171.9924937 404.82065036 170.98828125 405.73046875 C162.5115319 413.42825197 154.44714428 421.29498874 147 430 C146.08259322 431.05387488 145.16457495 432.10721762 144.24609375 433.16015625 C137.52714015 440.88989693 131.12256074 448.78884224 125 457 C124.47148437 457.70785645 123.94296875 458.41571289 123.3984375 459.14501953 C113.99241061 471.76960413 104.73877222 484.50746165 95.9140625 497.546875 C95.16419067 498.65156128 95.16419067 498.65156128 94.39916992 499.77856445 C93.44873441 501.18238961 92.50329634 502.58961572 91.5637207 504.00073242 C89.54314222 506.98769119 88.03639139 508.97573907 85 511 C82.3125 510.625 82.3125 510.625 80 510 C79.57892801 504.81457641 80.73234834 501.99651435 83.375 497.5625 C83.73005615 496.9634082 84.0851123 496.36431641 84.45092773 495.74707031 C89.86763854 486.7258442 95.84226158 478.0538523 101.875 469.4375 C102.41769531 468.65890625 102.96039063 467.8803125 103.51953125 467.078125 C104.44698623 465.77626208 105.39941193 464.49145298 106.38671875 463.234375 C107.71715023 461.56864889 107.71715023 461.56864889 109 459 C107.80426212 454.65991435 105.32070035 451.5621046 102.5625 448.0625 C102.13018066 447.50908936 101.69786133 446.95567871 101.25244141 446.38549805 C98.81979963 443.27750899 96.35715382 440.19362298 93.89453125 437.109375 C93.39042725 436.47507568 92.88632324 435.84077637 92.36694336 435.18725586 C91.38428293 433.95245804 90.39691837 432.72138695 89.40454102 431.49438477 C86 427.22285266 86 427.22285266 86 425 C85.34 425 84.68 425 84 425 C84.18175781 426.12905762 84.36351562 427.25811523 84.55078125 428.42138672 C85.22951664 432.65079358 85.89796509 436.88177518 86.56347656 441.11328125 C86.85173161 442.93696192 87.14269454 444.76021689 87.43652344 446.58300781 C87.8608256 449.21829945 88.27503996 451.85501959 88.6875 454.4921875 C88.81874268 455.29365204 88.94998535 456.09511658 89.08520508 456.92086792 C91.31140739 471.37718521 91.31140739 471.37718521 89 476 C87.125 475.875 87.125 475.875 85 475 C80.21606916 462.99399596 78.74857889 449.30087773 77.25 436.5625 C77.12246338 435.49805664 76.99492676 434.43361328 76.86352539 433.33691406 C76.51951873 430.226611 76.24272713 427.1197575 76 424 C75.85570557 422.41336548 75.85570557 422.41336548 75.70849609 420.79467773 C75.43863002 415.79593361 75.26155343 412.11618903 78.5703125 408.15234375 C79.723549 407.04673011 80.91060229 405.97556269 82.125 404.9375 C82.75229004 404.35734131 83.37958008 403.77718262 84.02587891 403.17944336 C89.3875886 398.30364278 95.07102217 393.79850809 100.84375 389.421875 C104.71933427 386.44803558 108.38834527 383.28638148 112 380 C109.01921349 375.89459441 105.98950636 371.93239609 102.5625 368.1875 C91.53304495 355.68261346 84.70519042 339.78849511 79.2578125 324.20703125 C78.9896875 323.44132812 78.7215625 322.675625 78.4453125 321.88671875 C78.21344238 321.20826904 77.98157227 320.52981934 77.74267578 319.83081055 C76.95676496 317.71712908 76.95676496 317.71712908 75 315 C68.71561804 315.29925628 63.11987375 316.4464401 57.125 318.3125 C22.83811052 328.83448404 22.83811052 328.83448404 10.25390625 323.9296875 C4.03441514 320.19186526 0.27237801 314.81713404 -2 308 C-2.12624962 306.1639647 -2.20149453 304.32420529 -2.24609375 302.484375 C-2.27896484 301.39769531 -2.31183594 300.31101562 -2.34570312 299.19140625 C-2.40648185 296.91285076 -2.46382208 294.63420073 -2.51757812 292.35546875 C-2.47443733 282.71781618 -2.47443733 282.71781618 -6.47265625 274.29296875 C-6.99730469 273.92816406 -7.52195312 273.56335938 -8.0625 273.1875 C-11 271 -11 271 -12 269 C-12.16796875 266.9765625 -12.16796875 266.9765625 -12.1875 264.625 C-12.20167969 263.85414063 -12.21585937 263.08328125 -12.23046875 262.2890625 C-11.97801607 259.78165112 -11.25193467 258.16738098 -10 256 C-10.721875 256.0825 -11.44375 256.165 -12.1875 256.25 C-15.91755397 255.91843965 -17.34685381 254.58143954 -20 252 C-21.78615407 249.05743809 -22.25487377 246.83173245 -22.30859375 243.41015625 C-22.33373047 242.54326172 -22.35886719 241.67636719 -22.38476562 240.78320312 C-22.4198448 238.97337746 -22.45111179 237.16347378 -22.47851562 235.35351562 C-22.6607111 228.67019174 -22.6607111 228.67019174 -26 223 C-28.28508279 221.28134695 -28.28508279 221.28134695 -30.875 219.9375 C-41.45104532 213.90284241 -41.45104532 213.90284241 -44 208 C-45.50865348 196.8736806 -37.9018456 188.05280557 -32.01049805 179.24047852 C-25.97775013 170.15690499 -22.67649346 163.72641677 -24.35546875 152.65625 C-25.19361258 148.70193039 -25.54335717 147.30442855 -29 145 C-31.80273217 144.68174268 -31.80273217 144.68174268 -34.875 144.75 C-35.90367187 144.74484375 -36.93234375 144.7396875 -37.9921875 144.734375 C-41.036282 145.00320412 -43.2434535 145.71835846 -46 147 C-45.67 147.99 -45.34 148.98 -45 150 C-44.96045766 152.33299825 -44.95598268 154.66708189 -45 157 C-45.99 157.33 -46.98 157.66 -48 158 C-47.81824219 158.64960693 -47.63648438 159.29921387 -47.44921875 159.96850586 C-46.62088851 162.95500804 -45.81036744 165.94607605 -45 168.9375 C-44.57074219 170.46987305 -44.57074219 170.46987305 -44.1328125 172.03320312 C-42.47031616 178.22798116 -41.67904268 183.58754022 -42 190 C-43.65 189.67 -45.3 189.34 -47 189 C-47.79467142 186.18831904 -48.58579233 183.37571498 -49.375 180.5625 C-49.59671875 179.77939453 -49.8184375 178.99628906 -50.046875 178.18945312 C-51.37055725 173.45923568 -52.52497069 168.74146309 -53.46557617 163.91943359 C-54.65839233 159.63532185 -57.4326046 157.3782636 -61 155 C-61.62289075 150.8733488 -61.57706387 148.80788942 -59.125 145.375 C-48.82122534 137.54413126 -39.58234284 137.14210038 -27 137 C-29.31 134.03 -31.62 131.06 -34 128 C-34.45375 128.94875 -34.9075 129.8975 -35.375 130.875 C-37 134 -37 134 -39 136 C-42.42098269 136.54735723 -44.90211731 136.60491184 -47.9921875 134.90234375 C-50.10013477 133.36444448 -52.05224599 131.73604162 -54 130 C-54.61101562 129.47019531 -55.22203125 128.94039062 -55.8515625 128.39453125 C-65.67113225 119.28871877 -70.40457922 107.39807994 -71.16015625 94.203125 C-71.77432819 72.30656003 -63.20030647 51.53902926 -48.23657227 35.69873047 C-41.35218498 28.71293979 -32.58292346 20.55349806 -22.32421875 19.8046875 C-21.01904297 19.83949219 -21.01904297 19.83949219 -19.6875 19.875 C-18.36298828 19.90207031 -18.36298828 19.90207031 -17.01171875 19.9296875 C-16.01591797 19.96449219 -16.01591797 19.96449219 -15 20 C-14.505 22.475 -14.505 22.475 -14 25 C-14.66644531 25.13535156 -15.33289063 25.27070313 -16.01953125 25.41015625 C-32.34142371 29.22240246 -43.28625853 40.22634012 -51.92285156 54.12597656 C-60.36636691 68.81600915 -64.87959487 85.14129049 -61.59716797 102.07861328 C-60.52357351 105.95450629 -58.8796238 109.45839305 -57 113 C-56.53078125 113.92296875 -56.0615625 114.8459375 -55.578125 115.796875 C-52.26415268 121.81903975 -48.24839611 126.87580194 -42 130 C-41.87625 129.05125 -41.7525 128.1025 -41.625 127.125 C-41 124 -41 124 -39 122 C-39.16599233 119.25380095 -39.16599233 119.25380095 -39.8125 116.1875 C-40.00457031 115.14980469 -40.19664062 114.11210937 -40.39453125 113.04296875 C-40.75644604 111.22405504 -41.13681019 109.40844045 -41.5546875 107.6015625 C-45.93810705 81.99316406 -32.90090908 53.58113634 -19.34375 32.4140625 C-17.25068555 29.54143833 -15.16466766 27.14884919 -12.51953125 24.7578125 C-9.65178649 21.61885467 -8.27972049 18.49807164 -6.875 14.5625 C-2.33851675 2.33851675 -2.33851675 2.33851675 0 0 Z " fill="#f0f0f0" transform="translate(330,192)"/>
<path d="M0 0 C10.29678499 5.24792205 15.9034876 15.2503471 19.4921875 25.95703125 C23.02941683 40.96498998 18.15286914 54.79380401 10.4921875 67.58251953 C7.15601445 72.82843072 3.22812223 77.61974911 -0.6875 82.4375 C-1.9622283 84.08031845 -3.23351595 85.72581751 -4.5 87.375 C-5.33144531 88.43460938 -5.33144531 88.43460938 -6.1796875 89.515625 C-7.11271662 90.70487456 -8.03656252 91.9014713 -8.9453125 93.109375 C-14.29811707 99.98648816 -21.08908244 104.79670534 -29.6875 106.4375 C-31.95330331 106.51262057 -34.22137882 106.53352406 -36.48828125 106.5078125 C-37.65141846 106.49766113 -38.81455566 106.48750977 -40.01293945 106.47705078 C-41.33684692 106.45747314 -41.33684692 106.45747314 -42.6875 106.4375 C-42.84831055 107.24380859 -43.00912109 108.05011719 -43.17480469 108.88085938 C-43.78453105 111.9094859 -44.40452549 114.93578652 -45.03125 117.9609375 C-45.42968023 119.89945379 -45.81652109 121.84034055 -46.203125 123.78125 C-50.36961181 143.78038667 -62.4552627 151.57172801 -78.34277344 162.78222656 C-80.60086787 164.37634154 -82.85206136 165.97972714 -85.1015625 167.5859375 C-88.62279781 170.09578399 -92.16048036 172.58091384 -95.70849609 175.05273438 C-97.54993959 176.34124505 -99.37865637 177.6461813 -101.20703125 178.953125 C-112.67626796 187.00643963 -125.19026897 193.15105904 -137.6875 199.4375 C-137.2028125 200.37207031 -136.718125 201.30664062 -136.21875 202.26953125 C-132.39553661 209.73380846 -128.89394158 217.22392127 -125.75 225 C-120.46588254 237.87565881 -113.42062908 248.97457037 -104.75390625 259.828125 C-102.6875 262.4375 -102.6875 262.4375 -100.6875 265.4375 C-99.91148437 264.77105469 -99.13546875 264.10460937 -98.3359375 263.41796875 C-92.01326112 258.01367548 -85.6147494 252.7379671 -79.05102539 247.62890625 C-76.05928271 245.30012751 -73.0815896 242.9582204 -70.13671875 240.5703125 C-33.1609061 210.58843654 18.70111809 171.02545629 68.6640625 169.80859375 C72.46393164 170.71092256 74.91609452 172.4328417 77.3125 175.4375 C78.89600814 178.70860855 79.92028418 182.079455 80.9375 185.5625 C81.52205125 187.45095049 82.10797626 189.33897633 82.6953125 191.2265625 C82.97020508 192.12793945 83.24509766 193.02931641 83.52832031 193.95800781 C84.74698576 197.81129744 86.2382484 201.54818162 87.78125 205.28125 C88.43805242 207.94709512 88.01520498 209.81160244 87.3125 212.4375 C85.03515625 212.3671875 85.03515625 212.3671875 82.3125 211.4375 C80.84609113 209.10222101 79.79593429 207.07707621 78.75 204.5625 C78.45262939 203.88646729 78.15525879 203.21043457 77.84887695 202.51391602 C75.419276 196.91371563 73.25166283 191.22575487 71.3125 185.4375 C70.9 184.220625 70.4875 183.00375 70.0625 181.75 C69.815 180.986875 69.5675 180.22375 69.3125 179.4375 C53.22195718 178.04504918 37.7482008 185.20237534 23.3125 191.4375 C22.58949707 191.74671387 21.86649414 192.05592773 21.12158203 192.37451172 C-4.11173061 203.29339659 -27.54192268 219.11078694 -49.03125 236.13916016 C-51.60435716 238.15622735 -54.21538952 240.12276674 -56.82128906 242.09716797 C-65.26067892 248.49952894 -73.51871133 255.0987654 -81.70800781 261.81689453 C-84.34335499 263.97444689 -86.98956699 266.11844819 -89.63574219 268.26269531 C-96.66891148 273.96311873 -103.66997379 279.70164645 -110.65258789 285.46386719 C-113.7940214 288.05614515 -116.93721533 290.64575352 -120.09765625 293.21484375 C-121.07605469 294.01019531 -122.05445313 294.80554688 -123.0625 295.625 C-124.31160156 296.63626953 -124.31160156 296.63626953 -125.5859375 297.66796875 C-126.27945313 298.25191406 -126.97296875 298.83585937 -127.6875 299.4375 C-128.29851562 299.92863281 -128.90953125 300.41976563 -129.5390625 300.92578125 C-130.91893683 302.37240634 -130.91893683 302.37240634 -130.43481445 304.29223633 C-129.58629978 306.72800844 -128.49314916 308.2649927 -126.87890625 310.2734375 C-126.30100342 311.00167725 -125.72310059 311.72991699 -125.12768555 312.48022461 C-124.50804932 313.24987549 -123.88841309 314.01952637 -123.25 314.8125 C-118.67829641 320.58885775 -114.16294537 326.38393256 -109.875 332.375 C-109.4612915 332.94718262 -109.04758301 333.51936523 -108.62133789 334.10888672 C-106.88513188 336.55287627 -105.64275382 338.57173855 -104.6875 341.4375 C-104.0275 341.4375 -103.3675 341.4375 -102.6875 341.4375 C-102.42839844 340.86902344 -102.16929687 340.30054688 -101.90234375 339.71484375 C-92.81663196 322.68278597 -75.46829825 307.1547172 -62 293.625 C-61.2992334 292.91956055 -60.5984668 292.21412109 -59.87646484 291.48730469 C-55.30916265 286.93396977 -50.58228559 282.63478673 -45.6875 278.4375 C-44.22376953 277.15166016 -44.22376953 277.15166016 -42.73046875 275.83984375 C-18.21287191 254.67622733 9.85458274 236.59881501 39.625 223.75 C40.37088379 223.42281982 41.11676758 223.09563965 41.88525391 222.75854492 C46.90458057 220.68347493 51.84674126 219.45189753 57.3125 219.4375 C58.3125 220.4375 58.3125 220.4375 58.375 223 C58.354375 223.804375 58.33375 224.60875 58.3125 225.4375 C56.91064453 226.12972656 56.91064453 226.12972656 55.48046875 226.8359375 C30.89802764 239.01917317 7.26608998 251.87818708 -14.6875 268.4375 C-15.58984375 269.11683594 -16.4921875 269.79617188 -17.421875 270.49609375 C-19.53322707 272.11704312 -21.61591358 273.76610641 -23.6875 275.4375 C-24.55375 276.13101562 -25.42 276.82453125 -26.3125 277.5390625 C-32.62622143 282.64265399 -38.70210188 287.95462406 -44.6875 293.4375 C-45.69108694 294.34800832 -46.6950063 295.25815036 -47.69921875 296.16796875 C-56.1759681 303.86575197 -64.24035572 311.73248874 -71.6875 320.4375 C-72.60490678 321.49137488 -73.52292505 322.54471762 -74.44140625 323.59765625 C-81.16035985 331.32739693 -87.56493926 339.22634224 -93.6875 347.4375 C-94.21601563 348.14535645 -94.74453125 348.85321289 -95.2890625 349.58251953 C-104.69508939 362.20710413 -113.94872778 374.94496165 -122.7734375 387.984375 C-123.27335205 388.72083252 -123.7732666 389.45729004 -124.28833008 390.21606445 C-125.23876559 391.61988961 -126.18420366 393.02711572 -127.1237793 394.43823242 C-129.14435778 397.42519119 -130.65110861 399.41323907 -133.6875 401.4375 C-136.375 401.0625 -136.375 401.0625 -138.6875 400.4375 C-139.10857199 395.25207641 -137.95515166 392.43401435 -135.3125 388 C-134.95744385 387.4009082 -134.6023877 386.80181641 -134.23657227 386.18457031 C-128.81986146 377.1633442 -122.84523842 368.4913523 -116.8125 359.875 C-116.26980469 359.09640625 -115.72710937 358.3178125 -115.16796875 357.515625 C-114.24051377 356.21376208 -113.28808807 354.92895298 -112.30078125 353.671875 C-110.97034977 352.00614889 -110.97034977 352.00614889 -109.6875 349.4375 C-110.88323788 345.09741435 -113.36679965 341.9996046 -116.125 338.5 C-116.55731934 337.94658936 -116.98963867 337.39317871 -117.43505859 336.82299805 C-119.86770037 333.71500899 -122.33034618 330.63112298 -124.79296875 327.546875 C-125.29707275 326.91257568 -125.80117676 326.27827637 -126.32055664 325.62475586 C-127.30321707 324.38995804 -128.29058163 323.15888695 -129.28295898 321.93188477 C-132.6875 317.66035266 -132.6875 317.66035266 -132.6875 315.4375 C-133.3475 315.4375 -134.0075 315.4375 -134.6875 315.4375 C-134.50574219 316.56655762 -134.32398438 317.69561523 -134.13671875 318.85888672 C-133.45798336 323.08829358 -132.78953491 327.31927518 -132.12402344 331.55078125 C-131.83576839 333.37446192 -131.54480546 335.19771689 -131.25097656 337.02050781 C-130.8266744 339.65579945 -130.41246004 342.29251959 -130 344.9296875 C-129.86875732 345.73115204 -129.73751465 346.53261658 -129.60229492 347.35836792 C-127.37609261 361.81468521 -127.37609261 361.81468521 -129.6875 366.4375 C-131.5625 366.3125 -131.5625 366.3125 -133.6875 365.4375 C-138.47143084 353.43149596 -139.93892111 339.73837773 -141.4375 327 C-141.56503662 325.93555664 -141.69257324 324.87111328 -141.82397461 323.77441406 C-142.16798127 320.664111 -142.44477287 317.5572575 -142.6875 314.4375 C-142.78369629 313.37974365 -142.87989258 312.3219873 -142.97900391 311.23217773 C-143.24886998 306.23343361 -143.42594657 302.55368903 -140.1171875 298.58984375 C-138.963951 297.48423011 -137.77689771 296.41306269 -136.5625 295.375 C-135.93520996 294.79484131 -135.30791992 294.21468262 -134.66162109 293.61694336 C-129.2999114 288.74114278 -123.61647783 284.23600809 -117.84375 279.859375 C-113.96816573 276.88553558 -110.29915473 273.72388148 -106.6875 270.4375 C-109.66828651 266.33209441 -112.69799364 262.36989609 -116.125 258.625 C-127.15445505 246.12011346 -133.98230958 230.22599511 -139.4296875 214.64453125 C-139.6978125 213.87882813 -139.9659375 213.113125 -140.2421875 212.32421875 C-140.47405762 211.64576904 -140.70592773 210.96731934 -140.94482422 210.26831055 C-141.73073504 208.15462908 -141.73073504 208.15462908 -143.6875 205.4375 C-149.97188196 205.73675628 -155.56762625 206.8839401 -161.5625 208.75 C-195.84938948 219.27198404 -195.84938948 219.27198404 -208.43359375 214.3671875 C-214.65308486 210.62936526 -218.41512199 205.25463404 -220.6875 198.4375 C-220.81374962 196.6014647 -220.88899453 194.76170529 -220.93359375 192.921875 C-220.98290039 191.29185547 -220.98290039 191.29185547 -221.03320312 189.62890625 C-221.09398185 187.35035076 -221.15132208 185.07170073 -221.20507812 182.79296875 C-221.46372211 174.52612147 -222.22222206 168.54135127 -226.6875 161.4375 C-226.6875 160.7775 -226.6875 160.1175 -226.6875 159.4375 C-226.0275 159.4375 -225.3675 159.4375 -224.6875 159.4375 C-225.0175 158.7775 -225.3475 158.1175 -225.6875 157.4375 C-225.727492 155.43789988 -225.73096799 153.43702758 -225.6875 151.4375 C-225.3575 151.4375 -225.0275 151.4375 -224.6875 151.4375 C-224.48125 152.324375 -224.275 153.21125 -224.0625 154.125 C-222.37201266 158.19753769 -220.10546084 159.73161434 -216.6875 162.4375 C-214.4610403 165.78740693 -214.43564903 168.67267387 -214.4140625 172.63671875 C-214.3934375 173.84650391 -214.3728125 175.05628906 -214.3515625 176.30273438 C-214.32572112 178.83131387 -214.30737293 181.35998213 -214.296875 183.88867188 C-214.13225545 192.51747993 -213.374116 199.56182677 -207.25 206 C-198.08223275 209.69927451 -187.4722371 207.16927044 -178.1875 204.875 C-177.06674072 204.6054248 -175.94598145 204.33584961 -174.79125977 204.05810547 C-146.8436247 197.15094802 -122.70798785 185.88104708 -99.62109375 168.62890625 C-95.67789654 165.68332218 -91.68107946 162.81421712 -87.6875 159.9375 C-86.12621013 158.80872092 -84.5650102 157.67981743 -83.00390625 156.55078125 C-80.47730894 154.72519246 -77.94609987 152.90706173 -75.40234375 151.10546875 C-72.80213414 149.25131084 -70.23927322 147.35756389 -67.6875 145.4375 C-66.43839844 144.54417969 -66.43839844 144.54417969 -65.1640625 143.6328125 C-58.31499411 138.29098246 -56.52640883 132.69258088 -54.6875 124.4375 C-54.05773736 121.73154544 -53.42239342 119.02697185 -52.78417969 116.32299805 C-52.35279198 114.47554024 -51.93241659 112.62546779 -51.52441406 110.77270508 C-50.43970108 105.97621182 -49.31318496 101.66852603 -46.6875 97.4375 C-44.125 96.5 -44.125 96.5 -41.6875 96.4375 C-41.0275 96.7675 -40.3675 97.0975 -39.6875 97.4375 C-32.4858373 98.17706469 -26.64246158 97.72913543 -20.6875 93.4375 C-15.19708467 88.84031927 -10.93026249 83.16267348 -6.6875 77.4375 C-5.90117188 76.40625 -5.11484375 75.375 -4.3046875 74.3125 C0.34802418 68.1064929 4.3960623 61.81608438 7.875 54.875 C8.20943115 54.20847412 8.5438623 53.54194824 8.88842773 52.85522461 C13.28115667 43.75888957 13.56030248 34.51134777 10.35546875 24.95703125 C7.45382682 17.94744682 3.8544328 11.49349833 -2.6875 7.4375 C-8.94156239 5.79709019 -13.98737447 6.29418319 -19.6875 9.4375 C-26.07464452 14.41022115 -31.62285271 20.14091148 -36.6875 26.4375 C-37.6775 26.1075 -38.6675 25.7775 -39.6875 25.4375 C-38.78639944 17.48933096 -34.18765955 11.46822861 -28.375 6.125 C-19.62300129 -0.73203471 -10.76491772 -4.19649335 0 0 Z " fill="#f0f0f0" transform="translate(548.6875,301.5625)"/>
<path d="M0 0 C1.87231445 0.2878418 1.87231445 0.2878418 4 1 C5.56017476 3.59233626 6.88888119 6.09406956 8.1875 8.8125 C12.10176714 16.59054863 16.45463361 23.25347121 22 30 C22.91652344 31.17949219 22.91652344 31.17949219 23.8515625 32.3828125 C34.39767074 45.26252767 51.42466467 55.60548844 68.0234375 57.7109375 C70 58 70 58 71 59 C75.84034716 59.16407956 80.23258627 58.95348275 85 58 C84.39414062 57.731875 83.78828125 57.46375 83.1640625 57.1875 C76.28844042 53.97182444 70.69312455 49.99884107 65 45 C64.21753906 44.32453125 63.43507813 43.6490625 62.62890625 42.953125 C56.65483451 37.45825688 56.65483451 37.45825688 56 33 C56 32.01 56 31.02 56 30 C59.89379479 30.11799378 61.62312637 31.4087085 64.1875 34.125 C76.27374851 46.83371625 94.76227231 55.51653692 112.34326172 56.11352539 C114.11854248 56.10567017 114.11854248 56.10567017 115.9296875 56.09765625 C117.21875 56.09443359 118.5078125 56.09121094 119.8359375 56.08789062 C121.18229236 56.07953733 122.52864652 56.07107241 123.875 56.0625 C125.24479004 56.0574783 126.61458185 56.05291657 127.984375 56.04882812 C131.3229619 56.03707254 134.66145815 56.02063964 138 56 C138.99 57.98 138.99 57.98 140 60 C136.07458711 62.70565183 132.899007 63.55359342 128.1875 64.125 C126.96160156 64.2796875 125.73570312 64.434375 124.47265625 64.59375 C123.32667969 64.7278125 122.18070313 64.861875 121 65 C119.37490102 65.20755981 117.74987751 65.41571345 116.125 65.625 C115.09375 65.74875 114.0625 65.8725 113 66 C112.0944632 68.71661039 111.86270746 70.36598488 111.82641602 73.16430664 C111.80618126 74.41559105 111.80618126 74.41559105 111.78553772 75.69215393 C111.77509933 76.5890947 111.76466095 77.48603546 111.75390625 78.41015625 C111.72098485 80.30534346 111.68777293 82.20052563 111.65429688 84.09570312 C111.60676184 87.08696218 111.5622948 90.07819839 111.52319336 93.06958008 C111.48361378 95.9541491 111.4320544 98.8383099 111.37890625 101.72265625 C111.3704921 102.62162125 111.36207794 103.52058624 111.35340881 104.4467926 C111.32844582 105.69334877 111.32844582 105.69334877 111.30297852 106.96508789 C111.29267105 107.69772354 111.28236359 108.43035919 111.27174377 109.18519592 C111 111 111 111 109 113 C106.375 112.625 106.375 112.625 104 112 C103.7666394 111.01326294 103.7666394 111.01326294 103.52856445 110.0065918 C100.19841937 95.95399057 96.75634318 81.94500853 93 68 C83.94831721 67.78416931 75.12038885 68.44220938 66.12890625 69.42578125 C64.71667591 69.57597757 63.30439748 69.72572229 61.89207458 69.87504578 C58.94429466 70.18806642 55.99701348 70.5053243 53.05004883 70.82592773 C49.33971943 71.2294108 45.62851863 71.62406052 41.91694069 72.01587105 C28.74683747 73.40815195 15.58067565 74.82241274 2.46484375 76.66796875 C1.6004921 76.7884407 0.73614044 76.90891266 -0.15440369 77.03303528 C-3.8893598 77.28848389 -3.8893598 77.28848389 -7 79 C-7.13343319 80.46889113 -7.20345339 81.94364607 -7.24609375 83.41796875 C-7.27735352 84.33626465 -7.30861328 85.25456055 -7.34082031 86.20068359 C-7.37272461 87.18633301 -7.40462891 88.17198242 -7.4375 89.1875 C-8.55940813 116.55940813 -8.55940813 116.55940813 -17 125 C-20.125 125.125 -20.125 125.125 -23 125 C-23 123.68 -23 122.36 -23 121 C-22.34 121 -21.68 121 -21 121 C-20.566875 119.9171875 -20.566875 119.9171875 -20.125 118.8125 C-19.42804095 117.07010238 -18.70384778 115.33801269 -17.9375 113.625 C-15.60097272 107.08272363 -15.72402248 99.93434233 -15.4375 93.0625 C-15.39431641 92.09248047 -15.35113281 91.12246094 -15.30664062 90.12304688 C-15.20137907 87.74881399 -15.09924293 85.37449079 -15 83 C-16.38445312 83.74830078 -16.38445312 83.74830078 -17.796875 84.51171875 C-21.50774859 86.23591733 -23.13001908 86.14340345 -27 85 C-27.66 84.34 -28.32 83.68 -29 83 C-28.91471238 78.47975613 -28.44279914 76.50759901 -25.4375 73.0625 C-24.633125 72.381875 -23.82875 71.70125 -23 71 C-25.43387753 69.78306124 -27.41838846 69.68040104 -30.125 69.4375 C-31.49011719 69.31181641 -31.49011719 69.31181641 -32.8828125 69.18359375 C-33.58148438 69.12300781 -34.28015625 69.06242187 -35 69 C-35.495 66.525 -35.495 66.525 -36 64 C-35.42768646 63.99191315 -34.85537292 63.98382629 -34.26571655 63.97549438 C7.36644225 65.82658188 7.36644225 65.82658188 48 60 C46.91203125 59.47792969 45.8240625 58.95585937 44.703125 58.41796875 C34.66606575 53.45042065 26.75047053 48.06753524 19 40 C18.25234375 39.24847656 17.5046875 38.49695313 16.734375 37.72265625 C8.13982667 28.65245544 -0.17205974 15.66210377 -0.25 2.75 C-0.1675 1.8425 -0.085 0.935 0 0 Z " fill="#f0f0f0" transform="translate(373,253)"/>
<path d="M0 0 C1.2065625 0.0309375 1.2065625 0.0309375 2.4375 0.0625 C4.42147306 4.32804207 5.91020786 8.5475717 7.2265625 13.06640625 C9.24809811 19.69342656 11.74789964 25.98641747 14.5625 32.3125 C15.28155518 33.93212646 15.28155518 33.93212646 16.01513672 35.58447266 C22.23706717 49.33982892 29.34936995 61.76102097 39.4375 73.0625 C40.22898437 73.98546875 41.02046875 74.9084375 41.8359375 75.859375 C48.27371797 83.21103598 55.29403948 89.63352632 63.4375 95.0625 C63.4375 96.3825 63.4375 97.7025 63.4375 99.0625 C57.70258549 99.94479454 54.66811188 97.56353025 50.1953125 94.375 C49.61523438 93.941875 49.03515625 93.50875 48.4375 93.0625 C48.4375 93.3925 48.4375 93.7225 48.4375 94.0625 C49.4275 95.0525 49.4275 95.0525 50.4375 96.0625 C50.4375 97.3825 50.4375 98.7025 50.4375 100.0625 C44.49426899 100.4403478 40.15458869 99.13785304 34.625 97.0625 C24.14527881 93.37782493 15.91205487 92.6566725 5.4375 97.0625 C3.97827315 97.94416946 2.53905685 98.86006771 1.125 99.8125 C-1.40247562 101.4940866 -2.26731315 102.04938058 -5.375 102.1875 C-8.42688282 100.61796027 -9.25445007 99.22935772 -10.5625 96.0625 C-11.04384638 92.21172898 -10.99160973 89.92071947 -9.25 86.4375 C-2.98407861 80.90017412 5.56793706 78.51367534 13.4375 76.0625 C12.91800781 75.17691406 12.39851563 74.29132813 11.86328125 73.37890625 C1.40312566 55.01462925 -1.58074085 36.42749674 -2.22167969 15.46264648 C-2.37556729 10.55450454 -2.71318105 5.90766237 -3.5625 1.0625 C-2.5625 0.0625 -2.5625 0.0625 0 0 Z " fill="#f0f0f0" transform="translate(335.5625,211.9375)"/>
<path d="M0 0 C0.99596191 0.30566895 1.99192383 0.61133789 3.01806641 0.92626953 C40.68732145 12.60019774 40.68732145 12.60019774 46 20 C46 21.32 46 22.64 46 24 C39.17685201 24.67948362 34.32779007 22.27838451 28.1875 19.5 C19.28446249 15.62531825 10.35481299 12.31920342 1.0625 9.5 C-0.00782471 9.17451172 -1.07814941 8.84902344 -2.1809082 8.51367188 C-43.76439464 -3.8403908 -101.2571401 -5.38586349 -140.60546875 15.90234375 C-145.58406554 18.5562311 -145.58406554 18.5562311 -150 22 C-148.22109375 22.05607422 -148.22109375 22.05607422 -146.40625 22.11328125 C-135.7104668 22.51802863 -125.42021936 23.46077216 -115 26 C-114.34435059 26.15952148 -113.68870117 26.31904297 -113.01318359 26.48339844 C-100.67308606 29.62035419 -89.02369495 35.05191865 -79 43 C-79.33 44.65 -79.66 46.3 -80 48 C-84.64281151 47.39402844 -88.35947413 45.41147691 -92.4375 43.25 C-103.15408932 37.74818509 -113.9661428 33.51969415 -126 32 C-126.82628906 31.88914063 -127.65257812 31.77828125 -128.50390625 31.6640625 C-135.74225861 30.88438554 -143.03849322 30.80222335 -150.3125 30.6875 C-151.35108154 30.65769043 -152.38966309 30.62788086 -153.4597168 30.59716797 C-159.9932079 30.54765985 -163.57416153 31.38995139 -169 35 C-171.9375 34.75 -171.9375 34.75 -174 34 C-173.42620789 27.99643442 -169.68168904 25.39719253 -165.3515625 21.6875 C-147.47719352 7.07363683 -127.68937969 -0.79324112 -105 -4.6875 C-103.24816406 -5.00557617 -103.24816406 -5.00557617 -101.4609375 -5.33007812 C-68.79830824 -11.06957562 -31.77467628 -9.95620042 0 0 Z " fill="#f0f0f0" transform="translate(488,145)"/>
<path d="M0 0 C3.875 1.75 3.875 1.75 5 4 C6.3641337 30.29922873 -2.5946681 53.34045671 -13.08984375 76.9921875 C-18.59854501 89.41850525 -23.87721069 101.78182265 -28.1875 114.6875 C-28.549646 115.76652588 -28.91179199 116.84555176 -29.28491211 117.95727539 C-32.52287368 127.96915609 -34.22583916 137.68458036 -34.625 148.1875 C-34.66367187 149.04408203 -34.70234375 149.90066406 -34.7421875 150.78320312 C-34.83478989 152.85518162 -34.91839094 154.9275594 -35 157 C-37.375 156.75 -37.375 156.75 -40 156 C-45.41633195 147.82276442 -42.90730505 131.31367597 -41.265625 122.109375 C-36.95205264 102.8008022 -27.84356254 84.2416875 -20.125 66.125 C-14.35940138 52.5881158 -9.60088748 39.40591963 -6.44970703 25.0234375 C-5.77462409 21.98593074 -5.03746218 18.96342911 -4.3125 15.9375 C-3.48595363 12.39134943 -2.81389377 8.93366764 -2.4375 5.3125 C-2 2 -2 2 0 0 Z " fill="#f0f0f0" transform="translate(629,282)"/>
<path d="M0 0 C28.87109544 0.93132566 55.26185952 20.1346839 74.51953125 40.171875 C90.97490593 57.87583535 104.15513085 81.70240826 104.3125 106.1875 C104.31805908 106.93088623 104.32361816 107.67427246 104.3293457 108.44018555 C104.25731594 113.74268406 104.25731594 113.74268406 102 116 C99.875 115.625 99.875 115.625 98 115 C96.53305131 110.1764738 95.54116284 105.49041176 94.75 100.5 C89.53870754 70.98766412 69.27552414 43.96425762 45.4375 26.5625 C31.07420072 16.82391628 15.79476776 9.50494947 -1 5 C-0.67 3.35 -0.34 1.7 0 0 Z " fill="#f0f0f0" transform="translate(535,153)"/>
<path d="M0 0 C1.2065625 0.0309375 1.2065625 0.0309375 2.4375 0.0625 C4.42147306 4.32804207 5.91020786 8.5475717 7.2265625 13.06640625 C9.24809811 19.69342656 11.74789964 25.98641747 14.5625 32.3125 C15.28155518 33.93212646 15.28155518 33.93212646 16.01513672 35.58447266 C22.23706717 49.33982892 29.34936995 61.76102097 39.4375 73.0625 C40.22898437 73.98546875 41.02046875 74.9084375 41.8359375 75.859375 C48.27371797 83.21103598 55.29403948 89.63352632 63.4375 95.0625 C63.4375 96.3825 63.4375 97.7025 63.4375 99.0625 C57.8875068 99.91634511 55.01840991 97.82209727 50.6953125 94.72265625 C49.57769531 93.90087891 49.57769531 93.90087891 48.4375 93.0625 C47.38175781 92.34900391 47.38175781 92.34900391 46.3046875 91.62109375 C44.64130434 90.493091 43.03302399 89.28460348 41.4375 88.0625 C41.4375 87.4025 41.4375 86.7425 41.4375 86.0625 C40.88449219 85.85109375 40.33148438 85.6396875 39.76171875 85.421875 C36.62617285 83.58797589 34.54152548 81.07236941 32.25 78.3125 C31.52816528 77.44794189 31.52816528 77.44794189 30.79174805 76.56591797 C21.27175611 64.92949937 12.74014792 51.15848368 7.4375 37.0625 C9.00032282 43.95312787 10.76980277 50.39362659 13.765625 56.80859375 C14.59896454 59.6041572 14.27832213 61.29382602 13.4375 64.0625 C11.875 65.875 11.875 65.875 10.4375 67.0625 C0.63508722 58.44636648 -0.94562466 40.3692715 -1.76464844 28.01269531 C-2.0333196 22.76486386 -2.2104245 17.51822392 -2.3515625 12.265625 C-2.46145461 8.44246502 -2.9007498 4.83322756 -3.5625 1.0625 C-2.5625 0.0625 -2.5625 0.0625 0 0 Z " fill="#f0f0f0" transform="translate(335.5625,211.9375)"/>
<path d="M0 0 C2.65331153 0.97288089 3.78269097 1.58952739 5.125 4.125 C8.78228951 16.1418084 10.26135832 28.5897701 12 41 C12.203953 42.42975521 12.40828255 43.85945685 12.61328125 45.2890625 C12.74089844 46.18367188 12.86851562 47.07828125 13 48 C14.11375 47.938125 15.2275 47.87625 16.375 47.8125 C18.169375 47.9053125 18.169375 47.9053125 20 48 C22.23469486 51.35204228 22.83037275 53.8960173 23.75 57.8125 C24.93832443 62.82123744 26.20548061 67.79049657 27.62890625 72.73828125 C27.90702148 73.71369873 28.18513672 74.68911621 28.47167969 75.6940918 C29.02387666 77.61892475 29.58544431 79.54109892 30.15722656 81.46020508 C31.54300236 86.33551223 32.42874034 89.97016558 31 95 C28.525 95.495 28.525 95.495 26 96 C23.46289666 92.18583723 22.22404488 88.71111584 21.1328125 84.2734375 C20.80145647 82.98159745 20.46940441 81.68993577 20.13671875 80.3984375 C19.62631735 78.38144141 19.12218075 76.36341128 18.63037109 74.34179688 C18.14873128 72.37712567 17.64108824 70.41888684 17.1328125 68.4609375 C16.69799561 66.70982666 16.69799561 66.70982666 16.25439453 64.92333984 C14.74046267 61.39515376 13.35642087 60.70014569 10 59 C0.92082294 47.56153858 0.47813133 29.49288529 -1.125 15.5 C-1.21281738 14.73389404 -1.30063477 13.96778809 -1.39111328 13.1784668 C-2.26986653 5.14453177 -2.26986653 5.14453177 -2 2 C-1.34 1.34 -0.68 0.68 0 0 Z " fill="#f0f0f0" transform="translate(563,377)"/>
<path d="M0 0 C0.99 1.98 0.99 1.98 2 4 C-0.63570677 6.63570677 -2.46051178 6.5323379 -6.125 7.125 C-23.68540539 10.71976057 -44.40820914 23.05008715 -54.87890625 37.61328125 C-59.8962643 45.77404435 -62.06716504 52.33274026 -61 62 C-60.17290849 64.28292227 -59.18958027 66.22240655 -57.95703125 68.30859375 C-56.73620814 70.46621174 -56.305736 72.55411201 -56 75 C-57.98 75.495 -57.98 75.495 -60 76 C-65.81393495 69.86306866 -69.14574265 63.11353949 -69.5 54.5625 C-69.00390627 43.5399174 -63.85848363 35.33750777 -57 27 C-56.48953125 26.37480469 -55.9790625 25.74960938 -55.453125 25.10546875 C-42.23058743 10.55386168 -19.68248445 -0.72898091 0 0 Z " fill="#f0f0f0" transform="translate(314,188)"/>
<path d="M0 0 C2.6169064 1.03650018 3.88099117 2.04828134 6 4 C6 4.99 6 5.98 6 7 C5.14277344 6.85820312 4.28554688 6.71640625 3.40234375 6.5703125 C-3.0759784 5.57410454 -3.0759784 5.57410454 -9.28125 7.05859375 C-11.09324292 8.58845619 -12.53661919 10.13637828 -14 12 C-14.825 12.99 -15.65 13.98 -16.5 15 C-18.20710659 17.87910525 -18.20710659 17.87910525 -18.0625 20.9375 C-17.09174449 23.73556001 -16.28196897 25.05776375 -14.5 27.3125 C-11.95514816 30.6931976 -10.91678642 33.57396014 -10.6875 37.80859375 C-11.67729938 44.74956193 -19.47447687 49.05845669 -24.6015625 53 C-26.8386473 54.86545182 -28.56911316 56.7265993 -30.375 59 C-31.24125 59.99 -32.1075 60.98 -33 62 C-34.32 62 -35.64 62 -37 62 C-38.48820702 57.7980037 -38.48820702 57.7980037 -38 55 C-34.58587251 50.94526863 -30.38891431 47.92594288 -26 45 C-24.86429211 43.34806416 -24.86429211 43.34806416 -23.9375 41.5 C-22.7384658 39.22713195 -21.84944218 37.84944218 -20 36 C-20.10897792 32.29475062 -21.57538739 30.07096131 -23.625 27.125 C-25.49160817 24.21352662 -25.99269916 23.13384882 -26.1875 19.5625 C-23.57398939 11.72196817 -18.66119764 5.80704985 -12 1 C-8.29174653 -0.85412674 -4.04688735 -0.45790469 0 0 Z " fill="#f0f0f0" transform="translate(541,321)"/>
<path d="M0 0 C0.33 0 0.66 0 1 0 C1.20625 0.886875 1.4125 1.77375 1.625 2.6875 C3.31548734 6.76003769 5.58203916 8.29411434 9 11 C11.26851928 14.39048086 11.25758237 17.35827843 11.265625 21.375 C11.26820313 22.60734375 11.27078125 23.8396875 11.2734375 25.109375 C11.26570313 26.39328125 11.25796875 27.6771875 11.25 29 C11.25773437 30.28390625 11.26546875 31.5678125 11.2734375 32.890625 C11.27085937 34.12296875 11.26828125 35.3553125 11.265625 36.625 C11.26336914 37.75164062 11.26111328 38.87828125 11.25878906 40.0390625 C11.00791555 42.90943418 10.49176307 44.57051496 9 47 C7.68 47 6.36 47 5 47 C4.98018066 46.2793335 4.96036133 45.55866699 4.93994141 44.81616211 C4.8441634 41.52293328 4.73469883 38.23029332 4.625 34.9375 C4.5940625 33.80376953 4.563125 32.67003906 4.53125 31.50195312 C4.24070076 23.19708722 3.48384256 17.13338589 -1 10 C-1 9.34 -1 8.68 -1 8 C-0.34 8 0.32 8 1 8 C0.67 7.34 0.34 6.68 0 6 C-0.039992 4.00039988 -0.04346799 1.99952758 0 0 Z " fill="#f0f0f0" transform="translate(323,453)"/>
<path d="M0 0 C0.66 0 1.32 0 2 0 C2 1.32 2 2.64 2 4 C2.89138672 4.64388672 2.89138672 4.64388672 3.80078125 5.30078125 C6.87312248 7.67461506 7.85109132 10.66424076 9.1875 14.1875 C9.57711914 15.13979492 9.57711914 15.13979492 9.97460938 16.11132812 C11.78689698 20.74272979 12.54298995 25.04997549 13 30 C11.35 30.33 9.7 30.66 8 31 C-2.75633159 10.63706348 -2.75633159 10.63706348 -3 4 C-1.67578125 1.703125 -1.67578125 1.703125 0 0 Z " fill="#f0f0f0" transform="translate(624,483)"/>
<path d="M0 0 C0.66 1.32 1.32 2.64 2 4 C-0.71565931 6.71565931 -2.99988344 6.77212927 -6.75 7.5 C-11.30754486 8.39211516 -15.62224826 9.44227239 -20 11 C-20.66 10.01 -21.32 9.02 -22 8 C-21.67 7.34 -21.34 6.68 -21 6 C-23.46800047 7.15173355 -25.04783565 8.04783565 -27 10 C-27 9.34 -27 8.68 -27 8 C-27.66 7.67 -28.32 7.34 -29 7 C-19.3324672 2.18461294 -10.82422864 -0.40089736 0 0 Z " fill="#f0f0f0" transform="translate(314,188)"/>
<path d="M0 0 C0.74056641 0.05671875 1.48113281 0.1134375 2.24414062 0.171875 C4.05943743 0.31241411 5.87361597 0.46727095 7.6875 0.625 C7.6875 1.615 7.6875 2.605 7.6875 3.625 C6.67429687 3.82416016 6.67429687 3.82416016 5.640625 4.02734375 C4.74859375 4.20394531 3.8565625 4.38054687 2.9375 4.5625 C2.05578125 4.73652344 1.1740625 4.91054688 0.265625 5.08984375 C-1.33280539 5.42163915 -2.92450138 5.79111466 -4.5 6.21875 C-6.71899273 6.71611044 -8.17166265 6.31312629 -10.3125 5.625 C-10.6425 6.945 -10.9725 8.265 -11.3125 9.625 C-11.9725 9.625 -12.6325 9.625 -13.3125 9.625 C-12.9825 11.275 -12.6525 12.925 -12.3125 14.625 C-13.6325 14.295 -14.9525 13.965 -16.3125 13.625 C-16.6425 11.645 -16.9725 9.665 -17.3125 7.625 C-18.3025 8.285 -19.2925 8.945 -20.3125 9.625 C-20.9725 8.965 -21.6325 8.305 -22.3125 7.625 C-20.92073368 6.66076974 -19.5238777 5.70388398 -18.125 4.75 C-17.34769531 4.21632813 -16.57039063 3.68265625 -15.76953125 3.1328125 C-10.33763128 -0.20059511 -6.29436625 -0.56249922 0 0 Z " fill="#f0f0f0" transform="translate(292.3125,330.375)"/>
<path d="M0 0 C2.0625 0.4375 2.0625 0.4375 4 1 C8.59225513 17.70842825 8.59225513 17.70842825 8 26 C6.35 25.67 4.7 25.34 3 25 C2.13024657 22.12891082 1.27899167 19.25437467 0.4375 16.375 C0.19064453 15.56675781 -0.05621094 14.75851562 -0.31054688 13.92578125 C-1.65445848 9.26941148 -2.38563254 5.80049744 -1 1 C-0.67 0.67 -0.34 0.34 0 0 Z " fill="#f0f0f0" transform="translate(280,356)"/>
<path d="M0 0 C0.99 1.32 1.98 2.64 3 4 C-0.55398753 7.79977732 -4.07875963 10.52754351 -8.5625 13.25 C-9.67753906 13.93578125 -10.79257812 14.6215625 -11.94140625 15.328125 C-14.41271059 16.67897846 -16.25761974 17.54405414 -19 18 C-18.75 15.625 -18.75 15.625 -18 13 C-16.6846659 12.29848848 -15.34882408 11.63474075 -14 11 C-13.54625 10.21625 -13.0925 9.4325 -12.625 8.625 C-9.71336559 3.92159056 -5.0968994 1.79890567 0 0 Z " fill="#f0f0f0" transform="translate(447,473)"/>
<path d="M0 0 C0.33 0 0.66 0 1 0 C4.50812065 19.9837587 4.50812065 19.9837587 2 25 C0.125 24.875 0.125 24.875 -2 24 C-4.54698835 18.36981522 -5.8251659 12.64477566 -3.6875 6.75 C-2.64743731 4.21326172 -1.54571073 2.3185661 0 0 Z " fill="#f0f0f0" transform="translate(417,643)"/>
<path d="M0 0 C5.04658402 4.4247986 6.79621058 11.0999198 7.25390625 17.61328125 C7.25047553 20.75239026 7.17934967 23.86636266 7 27 C6.67 27 6.34 27 6 27 C5.67 24.36 5.34 21.72 5 19 C4.071875 18.9175 3.14375 18.835 2.1875 18.75 C-1 17 -1 17 -2.20703125 14.37109375 C-3.12309194 11.19411732 -3.78462365 8.30097215 -4 5 C-2.1875 1.75 -2.1875 1.75 0 0 Z " fill="#f0f0f0" transform="translate(562,317)"/>
<path d="M0 0 C0 0.33 0 0.66 0 1 C-4.95 1.33 -9.9 1.66 -15 2 C-15 2.99 -15 3.98 -15 5 C-11.7 5.33 -8.4 5.66 -5 6 C-5 6.33 -5 6.66 -5 7 C-5.79664063 7.03738281 -6.59328125 7.07476562 -7.4140625 7.11328125 C-13.34196223 7.48107065 -17.78947164 7.9271243 -23 11 C-23.99 11 -24.98 11 -26 11 C-26 9.68 -26 8.36 -26 7 C-26.928125 7.99 -26.928125 7.99 -27.875 9 C-30 11 -30 11 -32 11 C-30.00698296 5.92686571 -26.42208144 3.76573616 -21.75 1.25 C-14.96618671 -1.18218112 -7.09146416 -0.21757901 0 0 Z " fill="#f0f0f0" transform="translate(353,316)"/>
<path d="M0 0 C3.60286389 0.6197587 5.86225899 2.108946 8.75 4.3125 C9.54921875 4.90675781 10.3484375 5.50101562 11.171875 6.11328125 C13 8 13 8 13 12 C7.40126393 12.86134401 4.26049091 10.64546931 -0.2421875 7.703125 C-1.11230469 6.86007812 -1.11230469 6.86007812 -2 6 C-2 4.68 -2 3.36 -2 2 C-1.34 2 -0.68 2 0 2 C0 1.34 0 0.68 0 0 Z " fill="#f0f0f0" transform="translate(386,299)"/>
<path d="M0 0 C1.32 0.99 2.64 1.98 4 3 C4.66 2.34 5.32 1.68 6 1 C6.0809313 3.60478883 6.14045434 6.20706653 6.1875 8.8125 C6.22520508 9.91948242 6.22520508 9.91948242 6.26367188 11.04882812 C6.33834499 16.54974762 6.33834499 16.54974762 4.48828125 19.01171875 C3.75158203 19.50091797 3.75158203 19.50091797 3 20 C2.01 19.67 1.02 19.34 0 19 C0.495 17.515 0.495 17.515 1 16 C0.67 15.67 0.34 15.34 0 15 C-0.07313567 12.46950598 -0.09247527 9.96695163 -0.0625 7.4375 C-0.05798828 6.72658203 -0.05347656 6.01566406 -0.04882812 5.28320312 C-0.03700864 3.52209987 -0.01907263 1.76103964 0 0 Z " fill="#f0f0f0" transform="translate(562,332)"/>
<path d="M0 0 C4.66073303 0.36989945 8.1985981 1.45816757 11.9375 4.3125 C12.9375 7.0625 12.9375 7.0625 12.9375 9.3125 C8.85161329 8.8778312 5.00849685 8.16170147 1.0625 7 C0.30195313 6.77699219 -0.45859375 6.55398438 -1.2421875 6.32421875 C-3.0625 5.3125 -3.0625 5.3125 -3.8828125 3.26953125 C-3.94210937 2.62371094 -4.00140625 1.97789062 -4.0625 1.3125 C-3.0625 0.3125 -3.0625 0.3125 0 0 Z " fill="#f0f0f0" transform="translate(312.0625,402.6875)"/>
<path d="M0 0 C4.62 0 9.24 0 14 0 C13.01 2.64 12.02 5.28 11 8 C6.07872966 8.16682272 2.49656104 8.24828052 -2 6 C-1.34 5.01 -0.68 4.02 0 3 C0 2.01 0 1.02 0 0 Z " fill="#f0f0f0" transform="translate(508,400)"/>
<path d="M0 0 C0.99 0.33 1.98 0.66 3 1 C3.66 0.67 4.32 0.34 5 0 C4.42365861 4.75481646 2.44931479 7.97048212 0 12 C-0.763125 11.79375 -1.52625 11.5875 -2.3125 11.375 C-5.21885944 10.66608797 -5.21885944 10.66608797 -8 13 C-8.8125 11.375 -8.8125 11.375 -9 9 C-6.47176465 5.4604705 -3.83460728 2.17294413 0 0 Z " fill="#f0f0f0" transform="translate(320,215)"/>
<path d="M0 0 C6.93 0 13.86 0 21 0 C21 0.33 21 0.66 21 1 C19.824375 1.12375 19.824375 1.12375 18.625 1.25 C17.75875 1.4975 16.8925 1.745 16 2 C15.34 3.32 14.68 4.64 14 6 C9.71 5.67 5.42 5.34 1 5 C0.67 3.35 0.34 1.7 0 0 Z " fill="#f0f0f0" transform="translate(337,317)"/>
<path d="M0 0 C0.66 1.32 1.32 2.64 2 4 C-0.33002055 6.33002055 -1.24690495 6.41956957 -4.4375 6.8125 C-5.21996094 6.92207031 -6.00242187 7.03164062 -6.80859375 7.14453125 C-9 7 -9 7 -10.66015625 5.69921875 C-11.8500416 4.19018047 -12.93401924 2.59897114 -14 1 C-9.23692563 0.04738513 -4.8333472 -0.08333357 0 0 Z " fill="#f0f0f0" transform="translate(314,188)"/>
<path d="M0 0 C11.88 0 23.76 0 36 0 C35.67 1.65 35.34 3.3 35 5 C33.02 5 31.04 5 29 5 C28.67 3.68 28.34 2.36 28 1 C18.76 1 9.52 1 0 1 C0 0.67 0 0.34 0 0 Z " fill="#f0f0f0" transform="translate(325,442)"/>
<path d="M0 0 C1.95031692 4.07723734 2.21581971 7.31692422 2.125 11.8125 C2.10695313 12.97394531 2.08890625 14.13539063 2.0703125 15.33203125 C2.04710937 16.21246094 2.02390625 17.09289062 2 18 C1.67 18 1.34 18 1 18 C0.67 15.36 0.34 12.72 0 10 C-1.98 9.34 -3.96 8.68 -6 8 C-6.25 5.6875 -6.25 5.6875 -6 3 C-3.95575462 1.02389614 -2.8823175 0 0 0 Z " fill="#f0f0f0" transform="translate(567,326)"/>
<path d="M0 0 C3 1 3 1 5 2 C4.38545304 5.99455527 2.29353263 8.74466336 0 12 C-0.33 10.68 -0.66 9.36 -1 8 C-2.32 8.33 -3.64 8.66 -5 9 C-3.90931332 5.22454612 -3.0916909 2.52956528 0 0 Z " fill="#f0f0f0" transform="translate(521,330)"/>
<path d="M0 0 C0.33 0.99 0.66 1.98 1 3 C0.34 3.66 -0.32 4.32 -1 5 C-1.66 5 -2.32 5 -3 5 C-3.061875 5.94875 -3.12375 6.8975 -3.1875 7.875 C-3.455625 8.90625 -3.72375 9.9375 -4 11 C-6.5625 12.375 -6.5625 12.375 -9 13 C-9.33 12.01 -9.66 11.02 -10 10 C-11.65 10 -13.3 10 -15 10 C-10.39486061 6.00887919 -5.24516756 3.05543741 0 0 Z " fill="#f0f0f0" transform="translate(433,481)"/>
<path d="M0 0 C3.34097385 0.59660247 5.54300129 1.63075125 8 4 C8 5.32 8 6.64 8 8 C2.58461538 8.36923077 2.58461538 8.36923077 -0.375 6.5 C-0.91125 6.005 -1.4475 5.51 -2 5 C-1.01 4.01 -0.02 3.02 1 2 C0.67 1.34 0.34 0.68 0 0 Z " fill="#f0f0f0" transform="translate(391,303)"/>
<path d="M0 0 C2.31 0.33 4.62 0.66 7 1 C6.01 1.495 6.01 1.495 5 2 C5.33 2.99 5.66 3.98 6 5 C5.34 5.66 4.68 6.32 4 7 C1.375 6.625 1.375 6.625 -1 6 C-0.67 4.02 -0.34 2.04 0 0 Z " fill="#f0f0f0" transform="translate(388,178)"/>
<path d="M0 0 C2.64 0 5.28 0 8 0 C8.66 1.32 9.32 2.64 10 4 C6.91190305 5.76462683 5.76687864 6 2 6 C2.66 4.68 3.32 3.36 4 2 C2.68 1.34 1.36 0.68 0 0 Z " fill="#f0f0f0" transform="translate(503,309)"/>
<path d="M0 0 C0 1.32 0 2.64 0 4 C-1.65 4.33 -3.3 4.66 -5 5 C-5 4.34 -5 3.68 -5 3 C-5.99 3 -6.98 3 -8 3 C-7.67 2.01 -7.34 1.02 -7 0 C-4.05610218 -1.17755913 -3.10046087 -1.03348696 0 0 Z " fill="#f0f0f0" transform="translate(316,213)"/>
<path d="M0 0 C2.5 1.3125 2.5 1.3125 5 3 C5 3.99 5 4.98 5 6 C2.69 5.67 0.38 5.34 -2 5 C-2.33 4.01 -2.66 3.02 -3 2 C-2.01 1.34 -1.02 0.68 0 0 Z " fill="#f0f0f0" transform="translate(542,322)"/>
<path d="M0 0 C0 0.99 0 1.98 0 3 C-2.1875 5.04296875 -2.1875 5.04296875 -5 7.1875 C-5.928125 7.90292969 -6.85625 8.61835937 -7.8125 9.35546875 C-8.8953125 10.16951172 -8.8953125 10.16951172 -10 11 C-10.33 10.01 -10.66 9.02 -11 8 C-7.37 5.36 -3.74 2.72 0 0 Z " fill="#f0f0f0" transform="translate(509,519)"/>
<path d="M0 0 C0.99 0 1.98 0 3 0 C3.33 1.98 3.66 3.96 4 6 C2.0625 6.5625 2.0625 6.5625 0 7 C-1 6 -1 6 -1.125 3.5 C-1 1 -1 1 0 0 Z " fill="#f0f0f0" transform="translate(290,315)"/>
<path d="M0 0 C1.875 0.1875 1.875 0.1875 4 1 C5.25 3.5625 5.25 3.5625 6 6 C4.02 6.33 2.04 6.66 0 7 C0 4.69 0 2.38 0 0 Z " fill="#f0f0f0" transform="translate(373,253)"/>
<path d="M0 0 C0.99 0.33 1.98 0.66 3 1 C2.67 2.65 2.34 4.3 2 6 C0.0625 5.6875 0.0625 5.6875 -2 5 C-2.33 4.01 -2.66 3.02 -3 2 C-2.01 2 -1.02 2 0 2 C0 1.34 0 0.68 0 0 Z " fill="#f0f0f0" transform="translate(255,258)"/>
<path d="M0 0 C1.2065625 0.0309375 1.2065625 0.0309375 2.4375 0.0625 C2.7675 1.7125 3.0975 3.3625 3.4375 5.0625 C3.1075 4.4025 2.7775 3.7425 2.4375 3.0625 C0.7875 3.7225 -0.8625 4.3825 -2.5625 5.0625 C-3.125 3.125 -3.125 3.125 -3.5625 1.0625 C-2.5625 0.0625 -2.5625 0.0625 0 0 Z " fill="#f0f0f0" transform="translate(335.5625,211.9375)"/>
<path d="M0 0 C0.33 0.99 0.66 1.98 1 3 C0.01 4.485 0.01 4.485 -1 6 C-3.475 5.01 -3.475 5.01 -6 4 C-6 3.34 -6 2.68 -6 2 C-4.02 1.34 -2.04 0.68 0 0 Z " fill="#f0f0f0" transform="translate(299,379)"/>
<path d="M0 0 C2.64 0 5.28 0 8 0 C8.66 1.32 9.32 2.64 10 4 C8.02 4.99 8.02 4.99 6 6 C6.33 4.68 6.66 3.36 7 2 C4.69 1.67 2.38 1.34 0 1 C0 0.67 0 0.34 0 0 Z " fill="#f0f0f0" transform="translate(306,188)"/>
<path d="M0 0 C-1.50223584 4.20626034 -4.28550034 5.73900021 -8 8 C-8.66 7.67 -9.32 7.34 -10 7 C-8.71372289 5.82739389 -7.42080217 4.6620717 -6.125 3.5 C-5.04605469 2.52546875 -5.04605469 2.52546875 -3.9453125 1.53125 C-2 0 -2 0 0 0 Z " fill="#f0f0f0" transform="translate(433,581)"/>
<path d="M0 0 C0.66 0.66 1.32 1.32 2 2 C1.34 3.98 0.68 5.96 0 8 C-1.5625 6.75 -1.5625 6.75 -3 5 C-2.8125 2.875 -2.8125 2.875 -2 1 C-1.34 0.67 -0.68 0.34 0 0 Z " fill="#f0f0f0" transform="translate(475,452)"/>
<path d="M0 0 C0.99 0 1.98 0 3 0 C2.67 1.65 2.34 3.3 2 5 C0.68 4.67 -0.64 4.34 -2 4 C-1.34 2.68 -0.68 1.36 0 0 Z " fill="#f0f0f0" transform="translate(316,311)"/>
<path d="M0 0 C0.66 0 1.32 0 2 0 C3.625 2.5 3.625 2.5 5 5 C4.01 5.495 4.01 5.495 3 6 C2.01 5.67 1.02 5.34 0 5 C0 3.35 0 1.7 0 0 Z " fill="#f0f0f0" transform="translate(428,622)"/>
<path d="M0 0 C3.63 0 7.26 0 11 0 C10.34 1.32 9.68 2.64 9 4 C8.34 3.34 7.68 2.68 7 2 C4.67724823 1.59952556 2.34260643 1.2602896 0 1 C0 0.67 0 0.34 0 0 Z " fill="#f0f0f0" transform="translate(511,400)"/>
<path d="M0 0 C0.66 0.99 1.32 1.98 2 3 C1 4 1 4 -2.5625 4.0625 C-3.696875 4.041875 -4.83125 4.02125 -6 4 C-5.34 3.67 -4.68 3.34 -4 3 C-3.67 2.34 -3.34 1.68 -3 1 C-2.01 0.67 -1.02 0.34 0 0 Z " fill="#f0f0f0" transform="translate(291,323)"/>
</svg>